<svg width="522" height="97" viewBox="0 0 522 97" fill="none" xmlns="http://www.w3.org/2000/svg">
<path d="M0.320001 95V1.56H30.4C37.056 1.56 42.816 2.712 47.68 5.016C52.544 7.31999 56.2987 10.6053 58.944 14.872C61.6747 19.1387 63.04 24.1733 63.04 29.976C63.04 36.0347 61.5467 41.4533 58.56 46.232C55.6587 51.0107 51.6907 54.4667 46.656 56.6L64.32 95H43.456L28.352 59.672H19.392V95H0.320001ZM19.392 43.032H30.4C34.6667 43.032 37.952 41.9653 40.256 39.832C42.6453 37.6987 43.84 34.712 43.84 30.872C43.84 26.8613 42.6453 23.7467 40.256 21.528C37.952 19.3093 34.6667 18.2 30.4 18.2H19.392V43.032ZM107.15 96.28C97.678 96.28 90.254 93.72 84.878 88.6C79.5873 83.48 76.942 76.4827 76.942 67.608V24.6H96.142V67.48C96.142 71.4053 97.0807 74.4347 98.958 76.568C100.835 78.616 103.566 79.64 107.15 79.64C110.649 79.64 113.337 78.616 115.214 76.568C117.177 74.4347 118.158 71.4053 118.158 67.48V24.6H137.358V67.608C137.358 76.568 134.67 83.608 129.294 88.728C123.918 93.7627 116.537 96.28 107.15 96.28ZM153.948 95V24.6H172.508V38.04H178.14L172.508 42.52C172.508 36.5467 174.215 31.8533 177.628 28.44C181.041 25.0267 185.649 23.32 191.452 23.32C198.279 23.32 203.74 25.7093 207.836 30.488C212.017 35.2667 214.108 41.624 214.108 49.56V95H194.908V51.48C194.908 47.8107 193.927 44.9947 191.964 43.032C190.087 40.984 187.399 39.96 183.9 39.96C180.487 39.96 177.841 40.984 175.964 43.032C174.087 44.9947 173.148 47.8107 173.148 51.48V95H153.948ZM261.162 96.28C254.933 96.28 249.471 95.128 244.778 92.824C240.085 90.4347 236.415 87.1493 233.77 82.968C231.21 78.7013 229.93 73.752 229.93 68.12V28.44C229.93 22.7227 231.21 17.7733 233.77 13.592C236.415 9.41066 240.085 6.16799 244.778 3.864C249.471 1.47467 254.933 0.279999 261.162 0.279999C267.477 0.279999 272.938 1.47467 277.546 3.864C282.239 6.16799 285.866 9.41066 288.426 13.592C291.071 17.7733 292.394 22.7227 292.394 28.44H273.194C273.194 24.6853 272.127 21.8267 269.994 19.864C267.946 17.9013 265.002 16.92 261.162 16.92C257.322 16.92 254.335 17.9013 252.202 19.864C250.154 21.8267 249.13 24.6853 249.13 28.44V68.12C249.13 71.7893 250.154 74.648 252.202 76.696C254.335 78.6587 257.322 79.64 261.162 79.64C265.002 79.64 267.946 78.6587 269.994 76.696C272.127 74.648 273.194 71.7893 273.194 68.12H292.394C292.394 73.752 291.071 78.7013 288.426 82.968C285.866 87.1493 282.239 90.4347 277.546 92.824C272.938 95.128 267.477 96.28 261.162 96.28ZM337.4 96.28C331.171 96.28 325.752 95.128 321.144 92.824C316.536 90.4347 312.952 87.1493 310.392 82.968C307.917 78.7013 306.68 73.752 306.68 68.12V51.48C306.68 45.848 307.917 40.9413 310.392 36.76C312.952 32.4933 316.536 29.208 321.144 26.904C325.752 24.5147 331.171 23.32 337.4 23.32C343.715 23.32 349.133 24.5147 353.656 26.904C358.264 29.208 361.805 32.4933 364.28 36.76C366.84 40.9413 368.12 45.848 368.12 51.48V68.12C368.12 73.752 366.84 78.7013 364.28 82.968C361.805 87.1493 358.264 90.4347 353.656 92.824C349.133 95.128 343.715 96.28 337.4 96.28ZM337.4 79.64C341.155 79.64 344.013 78.6587 345.976 76.696C347.939 74.648 348.92 71.7893 348.92 68.12V51.48C348.92 47.7253 347.939 44.8667 345.976 42.904C344.013 40.9413 341.155 39.96 337.4 39.96C333.731 39.96 330.872 40.9413 328.824 42.904C326.861 44.8667 325.88 47.7253 325.88 51.48V68.12C325.88 71.7893 326.861 74.648 328.824 76.696C330.872 78.6587 333.731 79.64 337.4 79.64ZM406.854 96.28C399.771 96.28 394.097 93.8053 389.83 88.856C385.563 83.9067 383.43 77.208 383.43 68.76V50.84C383.43 42.4773 385.563 35.8213 389.83 30.872C394.097 25.8373 399.771 23.32 406.854 23.32C412.657 23.32 417.222 25.0267 420.55 28.44C423.878 31.768 425.542 36.4613 425.542 42.52L421.062 38.04H425.542L424.902 20.76V1.56H444.102V95H425.542V81.56H421.062L425.542 77.08C425.542 83.1387 423.878 87.8747 420.55 91.288C417.222 94.616 412.657 96.28 406.854 96.28ZM413.766 79.64C417.265 79.64 419.995 78.6587 421.958 76.696C423.921 74.648 424.902 71.7893 424.902 68.12V51.48C424.902 47.8107 423.921 44.9947 421.958 43.032C419.995 40.984 417.265 39.96 413.766 39.96C410.182 39.96 407.409 40.984 405.446 43.032C403.569 44.9947 402.63 47.8107 402.63 51.48V68.12C402.63 71.7893 403.569 74.648 405.446 76.696C407.409 78.6587 410.182 79.64 413.766 79.64ZM491.028 96.28C484.799 96.28 479.337 95.128 474.644 92.824C470.036 90.4347 466.452 87.1493 463.892 82.968C461.417 78.7013 460.18 73.752 460.18 68.12V51.48C460.18 45.848 461.417 40.9413 463.892 36.76C466.452 32.4933 470.036 29.208 474.644 26.904C479.337 24.5147 484.799 23.32 491.028 23.32C497.257 23.32 502.633 24.5147 507.156 26.904C511.764 29.208 515.305 32.4933 517.78 36.76C520.34 40.9413 521.62 45.848 521.62 51.48V64.28H478.484V68.12C478.484 72.5573 479.551 75.928 481.684 78.232C483.817 80.4507 487.017 81.56 491.284 81.56C494.271 81.56 496.66 81.048 498.452 80.024C500.329 79 501.567 77.592 502.164 75.8H520.98C519.444 81.944 515.945 86.8933 510.484 90.648C505.108 94.4027 498.623 96.28 491.028 96.28ZM503.316 54.424V51.224C503.316 46.872 502.292 43.544 500.244 41.24C498.281 38.936 495.209 37.784 491.028 37.784C486.847 37.784 483.689 38.9787 481.556 41.368C479.508 43.7573 478.484 47.128 478.484 51.48V53.4L504.596 53.144L503.316 54.424Z" fill="#166AE8"/>
</svg>
